<?xml version="1.0" encoding="UTF-8"?>
<svg width="204px" height="168px" viewBox="0 0 204 168" version="1.1" xmlns="http://www.w3.org/2000/svg" xmlns:xlink="http://www.w3.org/1999/xlink">
    <title>BDB6E583-AC81-46B0-A5BA-0A624EB9C683</title>
    <g id="Page-4" stroke="none" stroke-width="1" fill="none" fill-rule="evenodd" opacity="0.159999996">
        <g id="JT-MP-FR-Templates-LP-A" transform="translate(-150.000000, -3076.000000)" fill="#6BB6C2">
            <g id="Group" transform="translate(0.000000, 2887.000000)">
                <g id="noun_Quote_77746-Copy" transform="translate(150.000000, 188.573556)">
                    <g transform="translate(0.000000, 0.443046)" id="Group-557">
                        <path d="M203.981651,1.96874607e-05 L203.981651,83.9915695 L155.986462,83.9915695 C155.986462,110.496069 177.477123,131.986755 203.981644,131.986755 L203.981644,167.982925 C157.591522,167.982925 119.990112,130.38171 119.990112,83.9915695 L119.990112,1.96874607e-05 L203.981651,1.96874607e-05 Z M83.9915237,1.96874607e-05 L83.9915237,83.9915695 L35.9963646,83.9915695 C35.9963646,110.496069 57.4870319,131.986755 83.9915314,131.986755 L83.9915314,167.982925 C37.6014099,167.982925 -1.51952263e-05,130.38171 -1.51952263e-05,83.9915695 L-1.51952263e-05,1.96874607e-05 L83.9915237,1.96874607e-05 Z" id="Path-602"></path>
                    </g>
                </g>
            </g>
        </g>
    </g>
</svg>